G04*
G04 #@! TF.GenerationSoftware,Altium Limited,Altium Designer,23.0.1 (38)*
G04*
G04 Layer_Color=128*
%FSLAX25Y25*%
%MOIN*%
G70*
G04*
G04 #@! TF.SameCoordinates,3B116F08-33B0-4896-A555-5329F97F8CBF*
G04*
G04*
G04 #@! TF.FilePolarity,Positive*
G04*
G01*
G75*
%ADD12C,0.00500*%
D12*
X56535Y-77559D02*
X60472D01*
X58504Y-79528D02*
Y-75591D01*
X49055Y-77559D02*
X52992D01*
X51024Y-79528D02*
Y-75591D01*
X76772Y-7874D02*
X80709D01*
X78740Y-9843D02*
Y-5906D01*
X86772Y-7874D02*
X90709D01*
X88740Y-9843D02*
Y-5906D01*
X102520Y-102362D02*
X106457D01*
X104488Y-104331D02*
Y-100394D01*
X92520Y-102362D02*
X96457D01*
X94488Y-104331D02*
Y-100394D01*
X76772Y-157480D02*
X80709D01*
X78740Y-159449D02*
Y-155512D01*
X66772Y-157480D02*
X70709D01*
X68740Y-159449D02*
Y-155512D01*
X56772Y-157480D02*
X60709D01*
X58740Y-159449D02*
Y-155512D01*
X46772Y-157480D02*
X50709D01*
X48740Y-159449D02*
Y-155512D01*
X1969Y-157480D02*
X5906D01*
X3937Y-159449D02*
Y-155512D01*
X1969Y-147480D02*
X5906D01*
X3937Y-149449D02*
Y-145512D01*
X1969Y-137480D02*
X5906D01*
X3937Y-139449D02*
Y-135512D01*
X1969Y-127480D02*
X5906D01*
X3937Y-129449D02*
Y-125512D01*
X63937Y-11811D02*
X67874D01*
X65905Y-13780D02*
Y-9843D01*
X3937Y-21811D02*
X7874D01*
X5906Y-23779D02*
Y-19842D01*
X3937Y-11811D02*
X7874D01*
X5906Y-13780D02*
Y-9843D01*
X3937Y-61811D02*
X7874D01*
X5906Y-63779D02*
Y-59842D01*
X3937Y-51811D02*
X7874D01*
X5906Y-53780D02*
Y-49843D01*
X3937Y-41811D02*
X7874D01*
X5906Y-43780D02*
Y-39843D01*
X3937Y-31811D02*
X7874D01*
X5906Y-33779D02*
Y-29842D01*
X3937Y-71811D02*
X7874D01*
X5906Y-73779D02*
Y-69842D01*
X63937Y-71811D02*
X67874D01*
X65905Y-73779D02*
Y-69842D01*
X63937Y-31811D02*
X67874D01*
X65905Y-33779D02*
Y-29842D01*
X63937Y-41811D02*
X67874D01*
X65905Y-43780D02*
Y-39843D01*
X63937Y-51811D02*
X67874D01*
X65905Y-53780D02*
Y-49843D01*
X63937Y-61811D02*
X67874D01*
X65905Y-63779D02*
Y-59842D01*
X63937Y-21811D02*
X67874D01*
X65905Y-23779D02*
Y-19842D01*
X15453Y-40945D02*
X21358D01*
X18406Y-43898D02*
Y-37992D01*
X15453Y-33059D02*
X21358D01*
X18406Y-36012D02*
Y-30106D01*
X29909Y-26500D02*
X31091D01*
X30500Y-27091D02*
Y-25909D01*
X30909Y-32000D02*
X32091D01*
X31500Y-32591D02*
Y-31409D01*
X85409Y-155000D02*
X86590D01*
X86000Y-155591D02*
Y-154409D01*
X58410Y-150500D02*
X59591D01*
X59000Y-151091D02*
Y-149909D01*
X61910Y-162423D02*
X63090D01*
X62500Y-163014D02*
Y-161833D01*
X95410Y-109000D02*
X96591D01*
X96000Y-109591D02*
Y-108409D01*
X86209Y-112300D02*
X87391D01*
X86800Y-112891D02*
Y-111709D01*
X91909Y-142500D02*
X93090D01*
X92500Y-143091D02*
Y-141909D01*
X37409Y-152111D02*
X38591D01*
X38000Y-152701D02*
Y-151520D01*
X34409Y-144700D02*
X35591D01*
X35000Y-145291D02*
Y-144109D01*
X8309Y-155500D02*
X9491D01*
X8900Y-156091D02*
Y-154909D01*
X109409Y-97000D02*
X110591D01*
X110000Y-97591D02*
Y-96409D01*
X112609Y-92400D02*
X113791D01*
X113200Y-92990D02*
Y-91809D01*
X41213Y-50000D02*
X42787D01*
X42000Y-50787D02*
Y-49213D01*
X89587Y-21938D02*
X90769D01*
X90178Y-22529D02*
Y-21348D01*
X88213Y-25500D02*
X89787D01*
X89000Y-26287D02*
Y-24713D01*
X55213Y-13500D02*
X56787D01*
X56000Y-14287D02*
Y-12713D01*
X83713Y-19375D02*
X85287D01*
X84500Y-20162D02*
Y-18588D01*
X48409Y-67500D02*
X49591D01*
X49000Y-68090D02*
Y-66909D01*
X33409Y-103000D02*
X34591D01*
X34000Y-103591D02*
Y-102409D01*
X70810Y-80800D02*
X71991D01*
X71400Y-81391D02*
Y-80209D01*
X83210Y-76700D02*
X84390D01*
X83800Y-77290D02*
Y-76109D01*
X23009Y-145800D02*
X24191D01*
X23600Y-146391D02*
Y-145209D01*
X42409Y-128128D02*
X43591D01*
X43000Y-128719D02*
Y-127537D01*
X25055Y-119300D02*
X26236D01*
X25646Y-119891D02*
Y-118709D01*
X49109Y-119300D02*
X50291D01*
X49700Y-119891D02*
Y-118709D01*
X85909Y-53600D02*
X87090D01*
X86500Y-54190D02*
Y-53009D01*
X82209Y-83700D02*
X83390D01*
X82800Y-84290D02*
Y-83109D01*
X76410Y-143800D02*
X77591D01*
X77000Y-144391D02*
Y-143209D01*
X60210Y-146300D02*
X61391D01*
X60800Y-146891D02*
Y-145709D01*
X113109Y-61400D02*
X114291D01*
X113700Y-61990D02*
Y-60809D01*
X99010Y-45800D02*
X100190D01*
X99600Y-46391D02*
Y-45209D01*
X71609Y-26800D02*
X72790D01*
X72200Y-27391D02*
Y-26209D01*
X72009Y-70000D02*
X73190D01*
X72600Y-70591D02*
Y-69410D01*
X57360Y-96220D02*
X58541D01*
X57950Y-96811D02*
Y-95630D01*
X95710Y-91469D02*
X96890D01*
X96300Y-92059D02*
Y-90878D01*
X22410Y-125800D02*
X23591D01*
X23000Y-126391D02*
Y-125209D01*
X15409Y-162900D02*
X16590D01*
X16000Y-163491D02*
Y-162309D01*
X82109Y-119500D02*
X83290D01*
X82700Y-120091D02*
Y-118909D01*
X21309Y-138400D02*
X22490D01*
X21900Y-138991D02*
Y-137809D01*
X11409Y-160000D02*
X12591D01*
X12000Y-160591D02*
Y-159409D01*
X89509Y-126900D02*
X90690D01*
X90100Y-127491D02*
Y-126309D01*
X109764Y-75900D02*
X110945D01*
X110354Y-76490D02*
Y-75309D01*
X86110Y-96800D02*
X87291D01*
X86700Y-97391D02*
Y-96210D01*
X95310Y-66700D02*
X96491D01*
X95900Y-67291D02*
Y-66110D01*
X102670Y-54200D02*
X103850D01*
X103260Y-54791D02*
Y-53610D01*
X71609Y-133700D02*
X72790D01*
X72200Y-134291D02*
Y-133109D01*
X91110Y-115700D02*
X92291D01*
X91700Y-116291D02*
Y-115109D01*
X21787Y-135323D02*
X22968D01*
X22377Y-135913D02*
Y-134732D01*
X73809Y-98300D02*
X74990D01*
X74400Y-98891D02*
Y-97710D01*
X76710Y-134200D02*
X77890D01*
X77300Y-134791D02*
Y-133609D01*
X54909Y-134700D02*
X56090D01*
X55500Y-135291D02*
Y-134109D01*
X8609Y-151200D02*
X9791D01*
X9200Y-151791D02*
Y-150609D01*
X94264Y-80946D02*
X95445D01*
X94854Y-81536D02*
Y-80355D01*
X98709Y-91600D02*
X99891D01*
X99300Y-92190D02*
Y-91009D01*
X98010Y-85400D02*
X99190D01*
X98600Y-85991D02*
Y-84809D01*
X94910Y-85300D02*
X96091D01*
X95500Y-85891D02*
Y-84710D01*
X104609Y-83400D02*
X105791D01*
X105200Y-83991D02*
Y-82810D01*
X99709Y-29000D02*
X100891D01*
X100300Y-29591D02*
Y-28409D01*
X89509Y-28900D02*
X90690D01*
X90100Y-29491D02*
Y-28309D01*
X67210Y-112500D02*
X68391D01*
X67800Y-113091D02*
Y-111909D01*
X80041Y-76500D02*
X81222D01*
X80631Y-77091D02*
Y-75910D01*
X62209Y-116700D02*
X63390D01*
X62800Y-117291D02*
Y-116109D01*
X105109Y-75600D02*
X106291D01*
X105700Y-76191D02*
Y-75010D01*
X63209Y-112800D02*
X64390D01*
X63800Y-113391D02*
Y-112209D01*
X75410Y-108600D02*
X76591D01*
X76000Y-109191D02*
Y-108009D01*
X101509Y-92400D02*
X102691D01*
X102100Y-92990D02*
Y-91809D01*
X107109Y-53300D02*
X108291D01*
X107700Y-53891D02*
Y-52710D01*
X54809Y-99100D02*
X55990D01*
X55400Y-99691D02*
Y-98510D01*
X49409Y-126400D02*
X50591D01*
X50000Y-126991D02*
Y-125809D01*
X51509Y-102300D02*
X52691D01*
X52100Y-102891D02*
Y-101709D01*
X62809Y-93600D02*
X63990D01*
X63400Y-94191D02*
Y-93010D01*
X37150Y-40559D02*
X38331D01*
X37741Y-41150D02*
Y-39968D01*
X15210Y-141807D02*
X16390D01*
X15800Y-142398D02*
Y-141217D01*
X22610Y-104000D02*
X23790D01*
X23200Y-104591D02*
Y-103409D01*
X36509Y-96500D02*
X37691D01*
X37100Y-97091D02*
Y-95910D01*
M02*
