G04*
G04 #@! TF.GenerationSoftware,Altium Limited,Altium Designer,23.0.1 (38)*
G04*
G04 Layer_Color=16711935*
%FSLAX25Y25*%
%MOIN*%
G70*
G04*
G04 #@! TF.SameCoordinates,3B116F08-33B0-4896-A555-5329F97F8CBF*
G04*
G04*
G04 #@! TF.FilePolarity,Positive*
G04*
G01*
G75*
%ADD10C,0.00394*%
D10*
X58972Y-112004D02*
G03*
X58972Y-112004I-787J0D01*
G01*
X53154Y-91004D02*
G03*
X53154Y-91004I-1969J0D01*
G01*
X36154Y-136504D02*
G03*
X36154Y-136504I-1969J0D01*
G01*
X104287Y-95500D02*
G03*
X104287Y-95500I-787J0D01*
G01*
X35154Y-163272D02*
X41846D01*
X35154Y-159728D02*
X41846D01*
Y-163272D02*
Y-159728D01*
X35154Y-163272D02*
Y-159728D01*
X22654Y-164272D02*
X29346D01*
X22654Y-160728D02*
X29346D01*
Y-164272D02*
Y-160728D01*
X22654Y-164272D02*
Y-160728D01*
X17458Y-148008D02*
Y-141315D01*
X21002Y-148008D02*
Y-141315D01*
X17458Y-148008D02*
X21002D01*
X17458Y-141315D02*
X21002D01*
X66895Y-135228D02*
X73588D01*
X66895Y-138772D02*
X73588D01*
X66895D02*
Y-135228D01*
X73588Y-138772D02*
Y-135228D01*
X66895Y-152272D02*
X73587D01*
X66895Y-148728D02*
X73587D01*
Y-152272D02*
Y-148728D01*
X66895Y-152272D02*
Y-148728D01*
Y-141978D02*
X73587D01*
X66895Y-145522D02*
X73587D01*
X66895D02*
Y-141978D01*
X73587Y-145522D02*
Y-141978D01*
X38653Y-113228D02*
X45346D01*
X38653Y-116771D02*
X45346D01*
X38653D02*
Y-113228D01*
X45346Y-116771D02*
Y-113228D01*
X80378Y-148728D02*
X87071D01*
X80378Y-152272D02*
X87071D01*
X80378D02*
Y-148728D01*
X87071Y-152272D02*
Y-148728D01*
X80378Y-145522D02*
X87071D01*
X80378Y-141978D02*
X87071D01*
Y-145522D02*
Y-141978D01*
X80378Y-145522D02*
Y-141978D01*
Y-135228D02*
X87071D01*
X80378Y-138772D02*
X87071D01*
X80378D02*
Y-135228D01*
X87071Y-138772D02*
Y-135228D01*
X80378Y-127728D02*
X87071D01*
X80378Y-131272D02*
X87071D01*
X80378D02*
Y-127728D01*
X87071Y-131272D02*
Y-127728D01*
Y-124772D02*
Y-121228D01*
X80378Y-124772D02*
Y-121228D01*
Y-124772D02*
X87071D01*
X80378Y-121228D02*
X87071D01*
X80378Y-114228D02*
X87071D01*
X80378Y-117772D02*
X87071D01*
X80378D02*
Y-114228D01*
X87071Y-117772D02*
Y-114228D01*
X80378Y-110772D02*
X87071D01*
X80378Y-107228D02*
X87071D01*
Y-110772D02*
Y-107228D01*
X80378Y-110772D02*
Y-107228D01*
X75697Y-78228D02*
X82390D01*
X75697Y-81772D02*
X82390D01*
X75697D02*
Y-78228D01*
X82390Y-81772D02*
Y-78228D01*
X75697Y-85616D02*
X82390D01*
X75697Y-89159D02*
X82390D01*
X75697D02*
Y-85616D01*
X82390Y-89159D02*
Y-85616D01*
X75697Y-103933D02*
Y-100390D01*
X82390Y-103933D02*
Y-100390D01*
X75697D02*
X82390D01*
X75697Y-103933D02*
X82390D01*
X53540Y-131874D02*
X60233D01*
X53540Y-128331D02*
X60233D01*
Y-131874D02*
Y-128331D01*
X53540Y-131874D02*
Y-128331D01*
X66895Y-128331D02*
X73587D01*
X66895Y-131874D02*
X73587D01*
X66895D02*
Y-128331D01*
X73587Y-131874D02*
Y-128331D01*
X57728Y-143346D02*
Y-136653D01*
X61272Y-143346D02*
Y-136653D01*
X57728Y-143346D02*
X61272D01*
X57728Y-136653D02*
X61272D01*
X54642Y-125500D02*
X72358D01*
X54642Y-111500D02*
X72358D01*
Y-125500D02*
Y-111500D01*
X54642Y-125500D02*
Y-111500D01*
X47642Y-107539D02*
Y-87460D01*
X65358Y-107539D02*
Y-87460D01*
X47642D02*
X65358D01*
X47642Y-107539D02*
X65358D01*
X35728Y-99653D02*
X39272D01*
X35728Y-106346D02*
X39272D01*
Y-99653D01*
X35728Y-106346D02*
Y-99653D01*
X18914Y-110374D02*
Y-106831D01*
X12221Y-110374D02*
Y-106831D01*
Y-110374D02*
X18914D01*
X12221Y-106831D02*
X18914D01*
X25153Y-110374D02*
Y-106831D01*
X31846Y-110374D02*
Y-106831D01*
X25153D02*
X31846D01*
X25153Y-110374D02*
X31846D01*
X22131Y-103587D02*
Y-91618D01*
X27643Y-103587D02*
Y-91618D01*
X22131D02*
X27643D01*
X22131Y-103587D02*
X27643D01*
X18914Y-88874D02*
Y-85331D01*
X12221Y-88874D02*
Y-85331D01*
Y-88874D02*
X18914D01*
X12221Y-85331D02*
X18914D01*
X25153Y-116771D02*
Y-113228D01*
X31846Y-116771D02*
Y-113228D01*
X25153D02*
X31846D01*
X25153Y-116771D02*
X31846D01*
X35728Y-93346D02*
X39272D01*
X35728Y-86653D02*
X39272D01*
X35728Y-93346D02*
Y-86653D01*
X39272Y-93346D02*
Y-86653D01*
X40157Y-128634D02*
Y-120366D01*
X34843Y-128634D02*
Y-120366D01*
X40157D01*
X34843Y-128634D02*
X40157D01*
X23540Y-88874D02*
Y-85331D01*
X30233Y-88874D02*
Y-85331D01*
X23540D02*
X30233D01*
X23540Y-88874D02*
X30233D01*
X10228Y-100846D02*
X13772D01*
X10228Y-94153D02*
X13772D01*
X10228Y-100846D02*
Y-94153D01*
X13772Y-100846D02*
Y-94153D01*
X10906Y-118260D02*
X19174D01*
X10906Y-112945D02*
X19174D01*
Y-118260D02*
Y-112945D01*
X10906Y-118260D02*
Y-112945D01*
X44728Y-122153D02*
X48272D01*
X44728Y-128846D02*
X48272D01*
Y-122153D01*
X44728Y-128846D02*
Y-122153D01*
X21244Y-131984D02*
Y-120016D01*
X26756Y-131984D02*
Y-120016D01*
X21244D02*
X26756D01*
X21244Y-131984D02*
X26756D01*
X10228Y-141315D02*
X13772D01*
X10228Y-148008D02*
X13772D01*
Y-141315D01*
X10228Y-148008D02*
Y-141315D01*
X12221Y-155272D02*
X18914D01*
X12221Y-151728D02*
X18914D01*
Y-155272D02*
Y-151728D01*
X12221Y-155272D02*
Y-151728D01*
X30642Y-153039D02*
X48358D01*
X30642Y-132961D02*
X48358D01*
Y-153039D02*
Y-132961D01*
X30642Y-153039D02*
Y-132961D01*
X18914Y-137433D02*
Y-133890D01*
X12221Y-137433D02*
Y-133890D01*
Y-137433D02*
X18914D01*
X12221Y-133890D02*
X18914D01*
X22654Y-155229D02*
X29347D01*
X22654Y-158772D02*
X29347D01*
X22654D02*
Y-155229D01*
X29347Y-158772D02*
Y-155229D01*
X41846Y-157772D02*
Y-154229D01*
X35153Y-157772D02*
Y-154229D01*
Y-157772D02*
X41846D01*
X35153Y-154229D02*
X41846D01*
X10228Y-129346D02*
X13772D01*
X10228Y-122653D02*
X13772D01*
X10228Y-129346D02*
Y-122653D01*
X13772Y-129346D02*
Y-122653D01*
X111980Y-25157D02*
Y-19843D01*
X103713Y-25157D02*
Y-19843D01*
Y-25157D02*
X111980D01*
X103713Y-19843D02*
X111980D01*
X100154Y-81272D02*
Y-77728D01*
X106847Y-81272D02*
Y-77728D01*
X100154D02*
X106847D01*
X100154Y-81272D02*
X106847D01*
X110728Y-79154D02*
X114272D01*
X110728Y-85847D02*
X114272D01*
Y-79154D01*
X110728Y-85847D02*
Y-79154D01*
X89142Y-83500D02*
X106858D01*
X89142Y-96000D02*
X106858D01*
X89142D02*
Y-83500D01*
X106858Y-96000D02*
Y-83500D01*
X88653Y-78772D02*
Y-75228D01*
X95346Y-78772D02*
Y-75228D01*
X88653D02*
X95346D01*
X88653Y-78772D02*
X95346D01*
X74229Y-54346D02*
X77772D01*
X74229Y-47654D02*
X77772D01*
X74229Y-54346D02*
Y-47654D01*
X77772Y-54346D02*
Y-47654D01*
X80075Y-54346D02*
X83618D01*
X80075Y-47654D02*
X83618D01*
X80075Y-54346D02*
Y-47654D01*
X83618Y-54346D02*
Y-47654D01*
X86729Y-63346D02*
X90272D01*
X86729Y-56653D02*
X90272D01*
X86729Y-63346D02*
Y-56653D01*
X90272Y-63346D02*
Y-56653D01*
X86728Y-43299D02*
X90272D01*
X86728Y-49992D02*
X90272D01*
Y-43299D01*
X86728Y-49992D02*
Y-43299D01*
X93228D02*
X96772D01*
X93228Y-49992D02*
X96772D01*
Y-43299D01*
X93228Y-49992D02*
Y-43299D01*
X100898Y-50456D02*
X113103D01*
X100898Y-57543D02*
X113103D01*
Y-50456D01*
X100898Y-57543D02*
Y-50456D01*
X88654Y-71771D02*
Y-68228D01*
X95346Y-71771D02*
Y-68228D01*
X88654D02*
X95346D01*
X88654Y-71771D02*
X95346D01*
X93229Y-63346D02*
X96772D01*
X93229Y-56653D02*
X96772D01*
X93229Y-63346D02*
Y-56653D01*
X96772Y-63346D02*
Y-56653D01*
X74229Y-41346D02*
X77772D01*
X74229Y-34653D02*
X77772D01*
X74229Y-41346D02*
Y-34653D01*
X77772Y-41346D02*
Y-34653D01*
X80075Y-41346D02*
X83618D01*
X80075Y-34654D02*
X83618D01*
X80075Y-41346D02*
Y-34654D01*
X83618Y-41346D02*
Y-34654D01*
X103713Y-28843D02*
X111980D01*
X103713Y-34157D02*
X111980D01*
X103713D02*
Y-28843D01*
X111980Y-34157D02*
Y-28843D01*
X97661Y-39331D02*
Y-30669D01*
X87031Y-39331D02*
Y-30669D01*
Y-39331D02*
X97661D01*
X87031Y-30669D02*
X97661D01*
X75654Y-24271D02*
Y-20728D01*
X82347Y-24271D02*
Y-20728D01*
X75654D02*
X82347D01*
X75654Y-24271D02*
X82347D01*
X82347Y-30772D02*
Y-27228D01*
X75654Y-30772D02*
Y-27228D01*
Y-30772D02*
X82347D01*
X75654Y-27228D02*
X82347D01*
X91346Y-25500D02*
X98346D01*
X91346Y-21000D02*
X98346D01*
X91346Y-25500D02*
Y-21000D01*
X98346Y-25500D02*
Y-21000D01*
X103713Y-37843D02*
X111980D01*
X103713Y-43157D02*
X111980D01*
X103713D02*
Y-37843D01*
X111980Y-43157D02*
Y-37843D01*
X110728Y-66008D02*
X114272D01*
X110728Y-72701D02*
X114272D01*
Y-66008D01*
X110728Y-72701D02*
Y-66008D01*
X104728D02*
X108272D01*
X104728Y-72701D02*
X108272D01*
Y-66008D01*
X104728Y-72701D02*
Y-66008D01*
X98728Y-72701D02*
Y-66008D01*
X102272Y-72701D02*
Y-66008D01*
X98728Y-72701D02*
X102272D01*
X98728Y-66008D02*
X102272D01*
X75654Y-58944D02*
X82347D01*
X75654Y-62487D02*
X82347D01*
X75654D02*
Y-58944D01*
X82347Y-62487D02*
Y-58944D01*
X74229Y-73062D02*
Y-66369D01*
X77772Y-73062D02*
Y-66369D01*
X74229Y-73062D02*
X77772D01*
X74229Y-66369D02*
X77772D01*
X80564Y-73062D02*
Y-66369D01*
X84107Y-73062D02*
Y-66369D01*
X80564Y-73062D02*
X84107D01*
X80564Y-66369D02*
X84107D01*
M02*
