G04*
G04 #@! TF.GenerationSoftware,Altium Limited,Altium Designer,23.0.1 (38)*
G04*
G04 Layer_Color=8388736*
%FSLAX25Y25*%
%MOIN*%
G70*
G04*
G04 #@! TF.SameCoordinates,C4E3482C-EC36-4988-95D7-60F58037128F*
G04*
G04*
G04 #@! TF.FilePolarity,Negative*
G04*
G01*
G75*
%ADD33R,0.04540X0.04343*%
%ADD34R,0.04343X0.04540*%
%ADD35R,0.05524X0.16548*%
%ADD36O,0.06312X0.02572*%
%ADD37O,0.06115X0.02572*%
%ADD38R,0.05603X0.03241*%
%ADD39R,0.06312X0.05524*%
%ADD40R,0.05524X0.06312*%
%ADD41O,0.06706X0.02572*%
%ADD42O,0.06509X0.01981*%
%ADD43R,0.03162X0.04934*%
%ADD44R,0.05642X0.09540*%
%ADD45O,0.02178X0.05328*%
%ADD46O,0.01587X0.06509*%
%ADD47O,0.01784X0.02572*%
%ADD48C,0.05918*%
%ADD49C,0.06706*%
G04:AMPARAMS|DCode=50|XSize=86.74mil|YSize=70.99mil|CornerRadius=19.75mil|HoleSize=0mil|Usage=FLASHONLY|Rotation=0.000|XOffset=0mil|YOffset=0mil|HoleType=Round|Shape=RoundedRectangle|*
%AMROUNDEDRECTD50*
21,1,0.08674,0.03150,0,0,0.0*
21,1,0.04724,0.07099,0,0,0.0*
1,1,0.03950,0.02362,-0.01575*
1,1,0.03950,-0.02362,-0.01575*
1,1,0.03950,-0.02362,0.01575*
1,1,0.03950,0.02362,0.01575*
%
%ADD50ROUNDEDRECTD50*%
%ADD51C,0.03162*%
%ADD52C,0.02769*%
D33*
X41354Y-161500D02*
D03*
X35646D02*
D03*
X28854Y-162500D02*
D03*
X23146D02*
D03*
X67387Y-137000D02*
D03*
X73095D02*
D03*
Y-150500D02*
D03*
X67387D02*
D03*
Y-143750D02*
D03*
X73095D02*
D03*
X39146Y-115000D02*
D03*
X44854D02*
D03*
X80870Y-150500D02*
D03*
X86579D02*
D03*
Y-143750D02*
D03*
X80870D02*
D03*
Y-137000D02*
D03*
X86579D02*
D03*
X80870Y-129500D02*
D03*
X86579D02*
D03*
Y-123000D02*
D03*
X80870D02*
D03*
Y-116000D02*
D03*
X86579D02*
D03*
Y-109000D02*
D03*
X80870D02*
D03*
X76189Y-80000D02*
D03*
X81898D02*
D03*
X76189Y-87387D02*
D03*
X81898D02*
D03*
X76189Y-102162D02*
D03*
X81898D02*
D03*
X59741Y-130102D02*
D03*
X54032D02*
D03*
X67387D02*
D03*
X73095D02*
D03*
X18422Y-108602D02*
D03*
X12713D02*
D03*
X25646D02*
D03*
X31354D02*
D03*
X18422Y-87102D02*
D03*
X12713D02*
D03*
X25646Y-115000D02*
D03*
X31354D02*
D03*
X24032Y-87102D02*
D03*
X29741D02*
D03*
X18422Y-153500D02*
D03*
X12713D02*
D03*
X18422Y-135662D02*
D03*
X12713D02*
D03*
X23146Y-157000D02*
D03*
X28854D02*
D03*
X41354Y-156000D02*
D03*
X35646D02*
D03*
X100646Y-79500D02*
D03*
X106354D02*
D03*
X89146Y-77000D02*
D03*
X94854D02*
D03*
X89146Y-70000D02*
D03*
X94854D02*
D03*
X76146Y-22500D02*
D03*
X81855D02*
D03*
Y-29000D02*
D03*
X76146D02*
D03*
X76146Y-60716D02*
D03*
X81855D02*
D03*
D34*
X19230Y-147516D02*
D03*
Y-141807D02*
D03*
X59500Y-142854D02*
D03*
Y-137146D02*
D03*
X37500Y-100146D02*
D03*
Y-105854D02*
D03*
Y-92854D02*
D03*
Y-87146D02*
D03*
X12000Y-100354D02*
D03*
Y-94646D02*
D03*
X46500Y-122646D02*
D03*
Y-128354D02*
D03*
X12000Y-141807D02*
D03*
Y-147516D02*
D03*
Y-128854D02*
D03*
Y-123146D02*
D03*
X112500Y-79646D02*
D03*
Y-85354D02*
D03*
X76000Y-53854D02*
D03*
Y-48146D02*
D03*
X81846Y-53854D02*
D03*
Y-48146D02*
D03*
X88500Y-62854D02*
D03*
Y-57146D02*
D03*
X88500Y-43791D02*
D03*
Y-49500D02*
D03*
X95000Y-43791D02*
D03*
Y-49500D02*
D03*
X95000Y-62854D02*
D03*
Y-57145D02*
D03*
X76000Y-40854D02*
D03*
Y-35145D02*
D03*
X81846Y-40854D02*
D03*
Y-35146D02*
D03*
X112500Y-66500D02*
D03*
Y-72209D02*
D03*
X106500Y-66500D02*
D03*
Y-72209D02*
D03*
X100500D02*
D03*
Y-66500D02*
D03*
X76000Y-72570D02*
D03*
Y-66861D02*
D03*
X82335Y-72570D02*
D03*
Y-66861D02*
D03*
D35*
X98268Y-8661D02*
D03*
X108268D02*
D03*
D36*
X72161Y-122338D02*
D03*
Y-119779D02*
D03*
Y-117220D02*
D03*
Y-114661D02*
D03*
X54839Y-122338D02*
D03*
Y-119779D02*
D03*
Y-117220D02*
D03*
Y-114661D02*
D03*
D37*
X44984Y-88543D02*
D03*
Y-91102D02*
D03*
Y-93661D02*
D03*
Y-96220D02*
D03*
Y-98779D02*
D03*
Y-101338D02*
D03*
Y-103897D02*
D03*
Y-106456D02*
D03*
X68016Y-88543D02*
D03*
Y-91102D02*
D03*
Y-93661D02*
D03*
Y-96220D02*
D03*
Y-98779D02*
D03*
Y-101338D02*
D03*
Y-103897D02*
D03*
Y-106456D02*
D03*
D38*
X19729Y-93862D02*
D03*
Y-97602D02*
D03*
Y-101343D02*
D03*
X30044D02*
D03*
Y-97602D02*
D03*
Y-93862D02*
D03*
X18843Y-122260D02*
D03*
Y-126000D02*
D03*
Y-129740D02*
D03*
X29157D02*
D03*
Y-126000D02*
D03*
Y-122260D02*
D03*
D39*
X37500Y-121153D02*
D03*
Y-127846D02*
D03*
D40*
X18387Y-115602D02*
D03*
X11694D02*
D03*
X111193Y-22500D02*
D03*
X104500D02*
D03*
Y-31500D02*
D03*
X111193D02*
D03*
X104500Y-40500D02*
D03*
X111193D02*
D03*
D41*
X50917Y-150677D02*
D03*
Y-148118D02*
D03*
Y-145559D02*
D03*
Y-143000D02*
D03*
Y-140441D02*
D03*
Y-137882D02*
D03*
Y-135323D02*
D03*
X28083Y-150677D02*
D03*
Y-148118D02*
D03*
Y-145559D02*
D03*
Y-143000D02*
D03*
Y-140441D02*
D03*
Y-137882D02*
D03*
Y-135323D02*
D03*
D42*
X89339Y-85563D02*
D03*
Y-87531D02*
D03*
Y-89500D02*
D03*
Y-91469D02*
D03*
Y-93437D02*
D03*
X106661Y-85563D02*
D03*
Y-87531D02*
D03*
Y-89500D02*
D03*
Y-91469D02*
D03*
Y-93437D02*
D03*
D43*
X110740Y-48390D02*
D03*
X107000D02*
D03*
X103260D02*
D03*
Y-59610D02*
D03*
X107000D02*
D03*
X110740D02*
D03*
D44*
X96618Y-35000D02*
D03*
X88075D02*
D03*
D45*
X92681Y-26862D02*
D03*
X97012D02*
D03*
D46*
X94846Y-26272D02*
D03*
D47*
X91894Y-20563D02*
D03*
X93862D02*
D03*
X95831D02*
D03*
X97799D02*
D03*
D48*
X58504Y-77559D02*
D03*
X51024D02*
D03*
X78740Y-7874D02*
D03*
X88740D02*
D03*
X104488Y-102362D02*
D03*
X94488D02*
D03*
X78740Y-157480D02*
D03*
X68740D02*
D03*
X58740D02*
D03*
X48740D02*
D03*
X3937D02*
D03*
Y-147480D02*
D03*
Y-137480D02*
D03*
Y-127480D02*
D03*
D49*
X65905Y-11811D02*
D03*
X5906Y-21811D02*
D03*
Y-11811D02*
D03*
Y-61811D02*
D03*
Y-51811D02*
D03*
Y-41811D02*
D03*
Y-31811D02*
D03*
Y-71811D02*
D03*
X65905D02*
D03*
Y-31811D02*
D03*
Y-41811D02*
D03*
Y-51811D02*
D03*
Y-61811D02*
D03*
Y-21811D02*
D03*
D50*
X18406Y-40945D02*
D03*
Y-33059D02*
D03*
D51*
X30500Y-26500D02*
D03*
X31500Y-32000D02*
D03*
X86000Y-155000D02*
D03*
X59000Y-150500D02*
D03*
X62500Y-162423D02*
D03*
X96000Y-109000D02*
D03*
X86800Y-112300D02*
D03*
X92500Y-142500D02*
D03*
X38000Y-152111D02*
D03*
X35000Y-144700D02*
D03*
X8900Y-155500D02*
D03*
X110000Y-97000D02*
D03*
X113200Y-92400D02*
D03*
X71400Y-80800D02*
D03*
X83800Y-76700D02*
D03*
X23600Y-145800D02*
D03*
X43000Y-128128D02*
D03*
X25646Y-119300D02*
D03*
X49700D02*
D03*
X86500Y-53600D02*
D03*
X82800Y-83700D02*
D03*
X77000Y-143800D02*
D03*
X60800Y-146300D02*
D03*
X113700Y-61400D02*
D03*
X99600Y-45800D02*
D03*
X72200Y-26800D02*
D03*
X72600Y-70000D02*
D03*
X57950Y-96220D02*
D03*
X96300Y-91469D02*
D03*
X23000Y-125800D02*
D03*
X16000Y-162900D02*
D03*
X82700Y-119500D02*
D03*
X21900Y-138400D02*
D03*
X12000Y-160000D02*
D03*
X90100Y-126900D02*
D03*
X110354Y-75900D02*
D03*
X86700Y-96800D02*
D03*
X95900Y-66700D02*
D03*
X103260Y-54200D02*
D03*
X72200Y-133700D02*
D03*
X91700Y-115700D02*
D03*
X22377Y-135323D02*
D03*
X74400Y-98300D02*
D03*
X77300Y-134200D02*
D03*
X55500Y-134700D02*
D03*
X9200Y-151200D02*
D03*
X94854Y-80946D02*
D03*
X99300Y-91600D02*
D03*
X98600Y-85400D02*
D03*
X95500Y-85300D02*
D03*
X105200Y-83400D02*
D03*
X100300Y-29000D02*
D03*
X90100Y-28900D02*
D03*
X67800Y-112500D02*
D03*
X80631Y-76500D02*
D03*
X62800Y-116700D02*
D03*
X105700Y-75600D02*
D03*
X63800Y-112800D02*
D03*
X76000Y-108600D02*
D03*
X102100Y-92400D02*
D03*
X107700Y-53300D02*
D03*
X55400Y-99100D02*
D03*
X50000Y-126400D02*
D03*
X52100Y-102300D02*
D03*
X63400Y-93600D02*
D03*
X37741Y-40559D02*
D03*
X15800Y-141807D02*
D03*
X23200Y-104000D02*
D03*
X37100Y-96500D02*
D03*
D52*
X42000Y-50000D02*
D03*
X90178Y-21938D02*
D03*
X89000Y-25500D02*
D03*
X56000Y-13500D02*
D03*
X84500Y-19375D02*
D03*
X49000Y-67500D02*
D03*
X34000Y-103000D02*
D03*
M02*
