G04*
G04 #@! TF.GenerationSoftware,Altium Limited,Altium Designer,23.0.1 (38)*
G04*
G04 Layer_Color=2752767*
%FSLAX25Y25*%
%MOIN*%
G70*
G04*
G04 #@! TF.SameCoordinates,3B116F08-33B0-4896-A555-5329F97F8CBF*
G04*
G04*
G04 #@! TF.FilePolarity,Positive*
G04*
G01*
G75*
%ADD12C,0.00500*%
%ADD13C,0.00667*%
D12*
X56504Y-79559D02*
Y-75559D01*
X60504D01*
Y-79559D01*
X56504D01*
X49024D02*
Y-75559D01*
X53024D01*
Y-79559D01*
X49024D01*
X76740Y-9874D02*
Y-5874D01*
X80740D01*
Y-9874D01*
X76740D01*
X86740D02*
Y-5874D01*
X90740D01*
Y-9874D01*
X86740D01*
X102488Y-104362D02*
Y-100362D01*
X106488D01*
Y-104362D01*
X102488D01*
X92488D02*
Y-100362D01*
X96488D01*
Y-104362D01*
X92488D01*
X76740Y-159480D02*
Y-155480D01*
X80740D01*
Y-159480D01*
X76740D01*
X66740D02*
Y-155480D01*
X70740D01*
Y-159480D01*
X66740D01*
X56740D02*
Y-155480D01*
X60740D01*
Y-159480D01*
X56740D01*
X46740D02*
Y-155480D01*
X50740D01*
Y-159480D01*
X46740D01*
X1937D02*
Y-155480D01*
X5937D01*
Y-159480D01*
X1937D01*
Y-149480D02*
Y-145480D01*
X5937D01*
Y-149480D01*
X1937D01*
Y-139480D02*
Y-135480D01*
X5937D01*
Y-139480D01*
X1937D01*
Y-129480D02*
Y-125480D01*
X5937D01*
Y-129480D01*
X1937D01*
X63906Y-13811D02*
Y-9811D01*
X67905D01*
Y-13811D01*
X63906D01*
X3906Y-23811D02*
Y-19811D01*
X7905D01*
Y-23811D01*
X3906D01*
Y-13811D02*
Y-9811D01*
X7905D01*
Y-13811D01*
X3906D01*
Y-63811D02*
Y-59811D01*
X7905D01*
Y-63811D01*
X3906D01*
Y-53811D02*
Y-49811D01*
X7905D01*
Y-53811D01*
X3906D01*
Y-43811D02*
Y-39811D01*
X7905D01*
Y-43811D01*
X3906D01*
Y-33811D02*
Y-29811D01*
X7905D01*
Y-33811D01*
X3906D01*
Y-73811D02*
Y-69811D01*
X7905D01*
Y-73811D01*
X3906D01*
X63906D02*
Y-69811D01*
X67905D01*
Y-73811D01*
X63906D01*
Y-33811D02*
Y-29811D01*
X67905D01*
Y-33811D01*
X63906D01*
Y-43811D02*
Y-39811D01*
X67905D01*
Y-43811D01*
X63906D01*
Y-53811D02*
Y-49811D01*
X67905D01*
Y-53811D01*
X63906D01*
Y-63811D02*
Y-59811D01*
X67905D01*
Y-63811D01*
X63906D01*
Y-23811D02*
Y-19811D01*
X67905D01*
Y-23811D01*
X63906D01*
X18406Y-42945D02*
X19406Y-41945D01*
X20405D01*
X19406Y-40945D01*
X20405Y-39945D01*
X19406D01*
X18406Y-38945D01*
X17405Y-39945D01*
X16406D01*
X17405Y-40945D01*
X16406Y-41945D01*
X17405D01*
X18406Y-42945D01*
Y-35059D02*
X19406Y-34059D01*
X20405D01*
X19406Y-33059D01*
X20405Y-32059D01*
X19406D01*
X18406Y-31059D01*
X17405Y-32059D01*
X16406D01*
X17405Y-33059D01*
X16406Y-34059D01*
X17405D01*
X18406Y-35059D01*
X42000Y-52000D02*
X40000Y-48000D01*
X44000D01*
X42000Y-52000D01*
X89000Y-27500D02*
X87000Y-23500D01*
X91000D01*
X89000Y-27500D01*
X56000Y-15500D02*
X54000Y-11500D01*
X58000D01*
X56000Y-15500D01*
X84500Y-21375D02*
X82500Y-17375D01*
X86500D01*
X84500Y-21375D01*
D13*
X32500Y-26500D02*
G03*
X32500Y-26500I-2000J0D01*
G01*
X33500Y-32000D02*
G03*
X33500Y-32000I-2000J0D01*
G01*
X88000Y-155000D02*
G03*
X88000Y-155000I-2000J0D01*
G01*
X61000Y-150500D02*
G03*
X61000Y-150500I-2000J0D01*
G01*
X64500Y-162423D02*
G03*
X64500Y-162423I-2000J0D01*
G01*
X98000Y-109000D02*
G03*
X98000Y-109000I-2000J0D01*
G01*
X88800Y-112300D02*
G03*
X88800Y-112300I-2000J0D01*
G01*
X94500Y-142500D02*
G03*
X94500Y-142500I-2000J0D01*
G01*
X40000Y-152111D02*
G03*
X40000Y-152111I-2000J0D01*
G01*
X37000Y-144700D02*
G03*
X37000Y-144700I-2000J0D01*
G01*
X10900Y-155500D02*
G03*
X10900Y-155500I-2000J0D01*
G01*
X112000Y-97000D02*
G03*
X112000Y-97000I-2000J0D01*
G01*
X115200Y-92400D02*
G03*
X115200Y-92400I-2000J0D01*
G01*
X92178Y-21938D02*
G03*
X92178Y-21938I-2000J0D01*
G01*
X51000Y-67500D02*
G03*
X51000Y-67500I-2000J0D01*
G01*
X36000Y-103000D02*
G03*
X36000Y-103000I-2000J0D01*
G01*
X73400Y-80800D02*
G03*
X73400Y-80800I-2000J0D01*
G01*
X85800Y-76700D02*
G03*
X85800Y-76700I-2000J0D01*
G01*
X25600Y-145800D02*
G03*
X25600Y-145800I-2000J0D01*
G01*
X45000Y-128128D02*
G03*
X45000Y-128128I-2000J0D01*
G01*
X27646Y-119300D02*
G03*
X27646Y-119300I-2000J0D01*
G01*
X51700D02*
G03*
X51700Y-119300I-2000J0D01*
G01*
X88500Y-53600D02*
G03*
X88500Y-53600I-2000J0D01*
G01*
X84800Y-83700D02*
G03*
X84800Y-83700I-2000J0D01*
G01*
X79000Y-143800D02*
G03*
X79000Y-143800I-2000J0D01*
G01*
X62800Y-146300D02*
G03*
X62800Y-146300I-2000J0D01*
G01*
X115700Y-61400D02*
G03*
X115700Y-61400I-2000J0D01*
G01*
X101600Y-45800D02*
G03*
X101600Y-45800I-2000J0D01*
G01*
X74200Y-26800D02*
G03*
X74200Y-26800I-2000J0D01*
G01*
X74600Y-70000D02*
G03*
X74600Y-70000I-2000J0D01*
G01*
X59950Y-96220D02*
G03*
X59950Y-96220I-2000J0D01*
G01*
X98300Y-91469D02*
G03*
X98300Y-91469I-2000J0D01*
G01*
X25000Y-125800D02*
G03*
X25000Y-125800I-2000J0D01*
G01*
X18000Y-162900D02*
G03*
X18000Y-162900I-2000J0D01*
G01*
X84700Y-119500D02*
G03*
X84700Y-119500I-2000J0D01*
G01*
X23900Y-138400D02*
G03*
X23900Y-138400I-2000J0D01*
G01*
X14000Y-160000D02*
G03*
X14000Y-160000I-2000J0D01*
G01*
X92100Y-126900D02*
G03*
X92100Y-126900I-2000J0D01*
G01*
X112354Y-75900D02*
G03*
X112354Y-75900I-2000J0D01*
G01*
X88700Y-96800D02*
G03*
X88700Y-96800I-2000J0D01*
G01*
X97900Y-66700D02*
G03*
X97900Y-66700I-2000J0D01*
G01*
X105260Y-54200D02*
G03*
X105260Y-54200I-2000J0D01*
G01*
X74200Y-133700D02*
G03*
X74200Y-133700I-2000J0D01*
G01*
X93700Y-115700D02*
G03*
X93700Y-115700I-2000J0D01*
G01*
X24377Y-135323D02*
G03*
X24377Y-135323I-2000J0D01*
G01*
X76400Y-98300D02*
G03*
X76400Y-98300I-2000J0D01*
G01*
X79300Y-134200D02*
G03*
X79300Y-134200I-2000J0D01*
G01*
X57500Y-134700D02*
G03*
X57500Y-134700I-2000J0D01*
G01*
X11200Y-151200D02*
G03*
X11200Y-151200I-2000J0D01*
G01*
X96854Y-80946D02*
G03*
X96854Y-80946I-2000J0D01*
G01*
X101300Y-91600D02*
G03*
X101300Y-91600I-2000J0D01*
G01*
X100600Y-85400D02*
G03*
X100600Y-85400I-2000J0D01*
G01*
X97500Y-85300D02*
G03*
X97500Y-85300I-2000J0D01*
G01*
X107200Y-83400D02*
G03*
X107200Y-83400I-2000J0D01*
G01*
X102300Y-29000D02*
G03*
X102300Y-29000I-2000J0D01*
G01*
X92100Y-28900D02*
G03*
X92100Y-28900I-2000J0D01*
G01*
X69800Y-112500D02*
G03*
X69800Y-112500I-2000J0D01*
G01*
X82631Y-76500D02*
G03*
X82631Y-76500I-2000J0D01*
G01*
X64800Y-116700D02*
G03*
X64800Y-116700I-2000J0D01*
G01*
X107700Y-75600D02*
G03*
X107700Y-75600I-2000J0D01*
G01*
X65800Y-112800D02*
G03*
X65800Y-112800I-2000J0D01*
G01*
X78000Y-108600D02*
G03*
X78000Y-108600I-2000J0D01*
G01*
X104100Y-92400D02*
G03*
X104100Y-92400I-2000J0D01*
G01*
X109700Y-53300D02*
G03*
X109700Y-53300I-2000J0D01*
G01*
X57400Y-99100D02*
G03*
X57400Y-99100I-2000J0D01*
G01*
X52000Y-126400D02*
G03*
X52000Y-126400I-2000J0D01*
G01*
X54100Y-102300D02*
G03*
X54100Y-102300I-2000J0D01*
G01*
X65400Y-93600D02*
G03*
X65400Y-93600I-2000J0D01*
G01*
X39741Y-40559D02*
G03*
X39741Y-40559I-2000J0D01*
G01*
X17800Y-141807D02*
G03*
X17800Y-141807I-2000J0D01*
G01*
X25200Y-104000D02*
G03*
X25200Y-104000I-2000J0D01*
G01*
X39100Y-96500D02*
G03*
X39100Y-96500I-2000J0D01*
G01*
M02*
