G04*
G04 #@! TF.GenerationSoftware,Altium Limited,Altium Designer,23.0.1 (38)*
G04*
G04 Layer_Color=65535*
%FSLAX25Y25*%
%MOIN*%
G70*
G04*
G04 #@! TF.SameCoordinates,C4E3482C-EC36-4988-95D7-60F58037128F*
G04*
G04*
G04 #@! TF.FilePolarity,Positive*
G04*
G01*
G75*
%ADD10C,0.02362*%
%ADD11C,0.00984*%
%ADD12C,0.01181*%
%ADD13C,0.00394*%
%ADD14C,0.01000*%
%ADD15C,0.00787*%
%ADD16C,0.00500*%
%ADD17C,0.00591*%
D10*
X61681Y-115500D02*
G03*
X61681Y-115500I-1181J0D01*
G01*
X54335Y-91398D02*
G03*
X54335Y-91398I-1181J0D01*
G01*
X37335Y-136898D02*
G03*
X37335Y-136898I-1181J0D01*
G01*
D11*
X54992Y-112000D02*
G03*
X54992Y-112000I-492J0D01*
G01*
X45476Y-85492D02*
G03*
X45476Y-85492I-492J0D01*
G01*
X20221Y-90477D02*
G03*
X20221Y-90477I-492J0D01*
G01*
X19335Y-118874D02*
G03*
X19335Y-118874I-492J0D01*
G01*
X28575Y-132272D02*
G03*
X28575Y-132272I-492J0D01*
G01*
X107492Y-96000D02*
G03*
X107492Y-96000I-492J0D01*
G01*
X114579Y-48390D02*
G03*
X114579Y-48390I-492J0D01*
G01*
D12*
X101740Y-95602D02*
G03*
X101740Y-95602I-394J0D01*
G01*
D13*
X91240Y-26500D02*
G03*
X91240Y-26500I-394J0D01*
G01*
X91846Y-23500D02*
X97346D01*
X91846Y-22500D02*
X97346D01*
Y-23500D02*
Y-22500D01*
X91846Y-23500D02*
Y-22500D01*
D14*
X70913Y-83071D02*
Y-559D01*
X913Y-83071D02*
Y-559D01*
X70913D01*
X913Y-83071D02*
X70913D01*
X1400Y2900D02*
Y6899D01*
X4399D01*
X5399Y5899D01*
Y2900D01*
X7398D02*
Y8898D01*
X10397D01*
X11397Y7898D01*
Y5899D01*
X10397Y4899D01*
X7398D01*
X9397D02*
X11397Y2900D01*
X17395Y8898D02*
X13396D01*
Y5899D01*
X15395D01*
X13396D01*
Y2900D01*
X19394D02*
X21394D01*
X20394D01*
Y8898D01*
X19394Y7898D01*
X26197Y-14748D02*
Y-6877D01*
X28821Y-9500D01*
X31444Y-6877D01*
Y-14748D01*
X39316Y-8189D02*
X38004Y-6877D01*
X35380D01*
X34068Y-8189D01*
Y-13436D01*
X35380Y-14748D01*
X38004D01*
X39316Y-13436D01*
X41940Y-6877D02*
Y-13436D01*
X43252Y-14748D01*
X45875D01*
X47188Y-13436D01*
Y-6877D01*
X86116Y-12387D02*
Y-15535D01*
X87691D01*
X88215Y-15011D01*
Y-14486D01*
X87691Y-13961D01*
X86116D01*
X87691D01*
X88215Y-13436D01*
Y-12912D01*
X87691Y-12387D01*
X86116D01*
X89265Y-13961D02*
X91364D01*
X98215Y-148606D02*
X106087D01*
Y-143359D01*
Y-140735D02*
X98215D01*
Y-136799D01*
X99527Y-135487D01*
X102151D01*
X103463Y-136799D01*
Y-140735D01*
Y-138111D02*
X106087Y-135487D01*
Y-132863D02*
X100839D01*
X98215Y-130239D01*
X100839Y-127616D01*
X106087D01*
X102151D01*
Y-132863D01*
X5500Y-5500D02*
Y-4500D01*
X6500D01*
Y-5500D01*
X5500D01*
X76116Y-12387D02*
Y-15535D01*
X77691D01*
X78215Y-15011D01*
Y-14486D01*
X77691Y-13961D01*
X76116D01*
X77691D01*
X78215Y-13436D01*
Y-12912D01*
X77691Y-12387D01*
X76116D01*
X79265Y-13961D02*
X81364D01*
X80314Y-12912D02*
Y-15011D01*
X24500Y-41188D02*
X27124D01*
X25812Y-39876D02*
Y-42500D01*
D15*
X56217Y-124500D02*
X70783D01*
X56217Y-112500D02*
X70783D01*
Y-124500D02*
Y-112500D01*
X56217Y-124500D02*
Y-112500D01*
X49217Y-107539D02*
Y-87460D01*
X63783Y-107539D02*
Y-87460D01*
X49217D02*
X63783D01*
X49217Y-107539D02*
X63783D01*
X23706Y-91697D02*
X26068D01*
X23706Y-103508D02*
X26068D01*
X23706D02*
Y-91697D01*
X26068Y-103508D02*
Y-91697D01*
X22819Y-120094D02*
X25181D01*
X22819Y-131905D02*
X25181D01*
X22819D02*
Y-120094D01*
X25181Y-131905D02*
Y-120094D01*
X32217Y-153039D02*
X46783D01*
X32217Y-132961D02*
X46783D01*
Y-153039D02*
Y-132961D01*
X32217Y-153039D02*
Y-132961D01*
X90717Y-84000D02*
X105283D01*
X90717Y-95500D02*
X105283D01*
X90717D02*
Y-84000D01*
X105283Y-95500D02*
Y-84000D01*
X113103Y-55968D02*
Y-52031D01*
X100898Y-55968D02*
Y-52031D01*
X113103D01*
X100898Y-55968D02*
X113103D01*
X91953Y-38977D02*
X92740D01*
X91953Y-31024D02*
X92740D01*
D16*
X90551Y-161417D02*
X114173D01*
Y-114173D01*
X90551D02*
X114173D01*
X90551Y-161417D02*
Y-114173D01*
D17*
X77428Y-162009D02*
X76116D01*
Y-163976D01*
X77428D01*
X76116Y-162993D02*
X76772D01*
X79396Y-163976D02*
X78084D01*
X79396Y-162664D01*
Y-162337D01*
X79068Y-162009D01*
X78412D01*
X78084Y-162337D01*
X80052Y-162993D02*
X81364D01*
X56903Y-162009D02*
X55592D01*
Y-163976D01*
X56903D01*
X55592Y-162993D02*
X56248D01*
X57559Y-163976D02*
X58215D01*
X57887D01*
Y-162009D01*
X57559Y-162337D01*
X59199Y-162993D02*
X60511D01*
X97047Y-99410D02*
Y-97442D01*
X97703Y-98098D01*
X98359Y-97442D01*
Y-99410D01*
X99015Y-98426D02*
X100327D01*
X66707Y-162009D02*
X65395D01*
Y-163976D01*
X66707D01*
X65395Y-162993D02*
X66051D01*
X68675Y-163976D02*
X67363D01*
X68675Y-162664D01*
Y-162337D01*
X68347Y-162009D01*
X67691D01*
X67363Y-162337D01*
X69331Y-162993D02*
X70642D01*
X69986Y-162337D02*
Y-163648D01*
X47592Y-162009D02*
X46280D01*
Y-163976D01*
X47592D01*
X46280Y-162993D02*
X46936D01*
X48248Y-163976D02*
X48904D01*
X48576D01*
Y-162009D01*
X48248Y-162337D01*
X49888Y-162993D02*
X51200D01*
X50544Y-162337D02*
Y-163648D01*
X89173Y-99410D02*
Y-97442D01*
X89829Y-98098D01*
X90485Y-97442D01*
Y-99410D01*
X91141Y-98426D02*
X92453D01*
X91797Y-97770D02*
Y-99081D01*
M02*
