G04*
G04 #@! TF.GenerationSoftware,Altium Limited,Altium Designer,23.0.1 (38)*
G04*
G04 Layer_Color=16711935*
%FSLAX25Y25*%
%MOIN*%
G70*
G04*
G04 #@! TF.SameCoordinates,C4E3482C-EC36-4988-95D7-60F58037128F*
G04*
G04*
G04 #@! TF.FilePolarity,Negative*
G04*
G01*
G75*
%ADD48C,0.05918*%
%ADD49C,0.06706*%
G04:AMPARAMS|DCode=50|XSize=86.74mil|YSize=70.99mil|CornerRadius=19.75mil|HoleSize=0mil|Usage=FLASHONLY|Rotation=0.000|XOffset=0mil|YOffset=0mil|HoleType=Round|Shape=RoundedRectangle|*
%AMROUNDEDRECTD50*
21,1,0.08674,0.03150,0,0,0.0*
21,1,0.04724,0.07099,0,0,0.0*
1,1,0.03950,0.02362,-0.01575*
1,1,0.03950,-0.02362,-0.01575*
1,1,0.03950,-0.02362,0.01575*
1,1,0.03950,0.02362,0.01575*
%
%ADD50ROUNDEDRECTD50*%
%ADD51C,0.03162*%
%ADD52C,0.02769*%
D48*
X58504Y-77559D02*
D03*
X51024D02*
D03*
X78740Y-7874D02*
D03*
X88740D02*
D03*
X104488Y-102362D02*
D03*
X94488D02*
D03*
X78740Y-157480D02*
D03*
X68740D02*
D03*
X58740D02*
D03*
X48740D02*
D03*
X3937D02*
D03*
Y-147480D02*
D03*
Y-137480D02*
D03*
Y-127480D02*
D03*
D49*
X65905Y-11811D02*
D03*
X5906Y-21811D02*
D03*
Y-11811D02*
D03*
Y-61811D02*
D03*
Y-51811D02*
D03*
Y-41811D02*
D03*
Y-31811D02*
D03*
Y-71811D02*
D03*
X65905D02*
D03*
Y-31811D02*
D03*
Y-41811D02*
D03*
Y-51811D02*
D03*
Y-61811D02*
D03*
Y-21811D02*
D03*
D50*
X18406Y-40945D02*
D03*
Y-33059D02*
D03*
D51*
X30500Y-26500D02*
D03*
X31500Y-32000D02*
D03*
X86000Y-155000D02*
D03*
X59000Y-150500D02*
D03*
X62500Y-162423D02*
D03*
X96000Y-109000D02*
D03*
X86800Y-112300D02*
D03*
X92500Y-142500D02*
D03*
X38000Y-152111D02*
D03*
X35000Y-144700D02*
D03*
X8900Y-155500D02*
D03*
X110000Y-97000D02*
D03*
X113200Y-92400D02*
D03*
X71400Y-80800D02*
D03*
X83800Y-76700D02*
D03*
X23600Y-145800D02*
D03*
X43000Y-128128D02*
D03*
X25646Y-119300D02*
D03*
X49700D02*
D03*
X86500Y-53600D02*
D03*
X82800Y-83700D02*
D03*
X77000Y-143800D02*
D03*
X60800Y-146300D02*
D03*
X113700Y-61400D02*
D03*
X99600Y-45800D02*
D03*
X72200Y-26800D02*
D03*
X72600Y-70000D02*
D03*
X57950Y-96220D02*
D03*
X96300Y-91469D02*
D03*
X23000Y-125800D02*
D03*
X16000Y-162900D02*
D03*
X82700Y-119500D02*
D03*
X21900Y-138400D02*
D03*
X12000Y-160000D02*
D03*
X90100Y-126900D02*
D03*
X110354Y-75900D02*
D03*
X86700Y-96800D02*
D03*
X95900Y-66700D02*
D03*
X103260Y-54200D02*
D03*
X72200Y-133700D02*
D03*
X91700Y-115700D02*
D03*
X22377Y-135323D02*
D03*
X74400Y-98300D02*
D03*
X77300Y-134200D02*
D03*
X55500Y-134700D02*
D03*
X9200Y-151200D02*
D03*
X94854Y-80946D02*
D03*
X99300Y-91600D02*
D03*
X98600Y-85400D02*
D03*
X95500Y-85300D02*
D03*
X105200Y-83400D02*
D03*
X100300Y-29000D02*
D03*
X90100Y-28900D02*
D03*
X67800Y-112500D02*
D03*
X80631Y-76500D02*
D03*
X62800Y-116700D02*
D03*
X105700Y-75600D02*
D03*
X63800Y-112800D02*
D03*
X76000Y-108600D02*
D03*
X102100Y-92400D02*
D03*
X107700Y-53300D02*
D03*
X55400Y-99100D02*
D03*
X50000Y-126400D02*
D03*
X52100Y-102300D02*
D03*
X63400Y-93600D02*
D03*
X37741Y-40559D02*
D03*
X15800Y-141807D02*
D03*
X23200Y-104000D02*
D03*
X37100Y-96500D02*
D03*
D52*
X42000Y-50000D02*
D03*
X90178Y-21938D02*
D03*
X89000Y-25500D02*
D03*
X56000Y-13500D02*
D03*
X84500Y-19375D02*
D03*
X49000Y-67500D02*
D03*
X34000Y-103000D02*
D03*
M02*
