G04*
G04 #@! TF.GenerationSoftware,Altium Limited,Altium Designer,23.0.1 (38)*
G04*
G04 Layer_Color=255*
%FSLAX25Y25*%
%MOIN*%
G70*
G04*
G04 #@! TF.SameCoordinates,C4E3482C-EC36-4988-95D7-60F58037128F*
G04*
G04*
G04 #@! TF.FilePolarity,Positive*
G04*
G01*
G75*
%ADD18R,0.03740X0.03543*%
%ADD19R,0.03543X0.03740*%
%ADD20R,0.04724X0.15748*%
%ADD21O,0.05512X0.01772*%
%ADD22O,0.05315X0.01772*%
%ADD23R,0.04803X0.02441*%
%ADD24R,0.05512X0.04724*%
%ADD25R,0.04724X0.05512*%
%ADD26O,0.05906X0.01772*%
%ADD27O,0.05709X0.01181*%
%ADD28R,0.02362X0.04134*%
%ADD29R,0.04842X0.08740*%
%ADD30O,0.01378X0.04528*%
%ADD31O,0.00787X0.05709*%
%ADD32O,0.00984X0.01772*%
%ADD53C,0.05118*%
%ADD54C,0.05906*%
G04:AMPARAMS|DCode=55|XSize=78.74mil|YSize=62.99mil|CornerRadius=15.75mil|HoleSize=0mil|Usage=FLASHONLY|Rotation=0.000|XOffset=0mil|YOffset=0mil|HoleType=Round|Shape=RoundedRectangle|*
%AMROUNDEDRECTD55*
21,1,0.07874,0.03150,0,0,0.0*
21,1,0.04724,0.06299,0,0,0.0*
1,1,0.03150,0.02362,-0.01575*
1,1,0.03150,-0.02362,-0.01575*
1,1,0.03150,-0.02362,0.01575*
1,1,0.03150,0.02362,0.01575*
%
%ADD55ROUNDEDRECTD55*%
D18*
X41354Y-161500D02*
D03*
X35646D02*
D03*
X28854Y-162500D02*
D03*
X23146D02*
D03*
X67387Y-137000D02*
D03*
X73095D02*
D03*
Y-150500D02*
D03*
X67387D02*
D03*
Y-143750D02*
D03*
X73095D02*
D03*
X39146Y-115000D02*
D03*
X44854D02*
D03*
X80870Y-150500D02*
D03*
X86579D02*
D03*
Y-143750D02*
D03*
X80870D02*
D03*
Y-137000D02*
D03*
X86579D02*
D03*
X80870Y-129500D02*
D03*
X86579D02*
D03*
Y-123000D02*
D03*
X80870D02*
D03*
Y-116000D02*
D03*
X86579D02*
D03*
Y-109000D02*
D03*
X80870D02*
D03*
X76189Y-80000D02*
D03*
X81898D02*
D03*
X76189Y-87387D02*
D03*
X81898D02*
D03*
X76189Y-102162D02*
D03*
X81898D02*
D03*
X59741Y-130102D02*
D03*
X54032D02*
D03*
X67387D02*
D03*
X73095D02*
D03*
X18422Y-108602D02*
D03*
X12713D02*
D03*
X25646D02*
D03*
X31354D02*
D03*
X18422Y-87102D02*
D03*
X12713D02*
D03*
X25646Y-115000D02*
D03*
X31354D02*
D03*
X24032Y-87102D02*
D03*
X29741D02*
D03*
X18422Y-153500D02*
D03*
X12713D02*
D03*
X18422Y-135662D02*
D03*
X12713D02*
D03*
X23146Y-157000D02*
D03*
X28854D02*
D03*
X41354Y-156000D02*
D03*
X35646D02*
D03*
X100646Y-79500D02*
D03*
X106354D02*
D03*
X89146Y-77000D02*
D03*
X94854D02*
D03*
X89146Y-70000D02*
D03*
X94854D02*
D03*
X76146Y-22500D02*
D03*
X81855D02*
D03*
Y-29000D02*
D03*
X76146D02*
D03*
X76146Y-60716D02*
D03*
X81855D02*
D03*
D19*
X19230Y-147516D02*
D03*
Y-141807D02*
D03*
X59500Y-142854D02*
D03*
Y-137146D02*
D03*
X37500Y-100146D02*
D03*
Y-105854D02*
D03*
Y-92854D02*
D03*
Y-87146D02*
D03*
X12000Y-100354D02*
D03*
Y-94646D02*
D03*
X46500Y-122646D02*
D03*
Y-128354D02*
D03*
X12000Y-141807D02*
D03*
Y-147516D02*
D03*
Y-128854D02*
D03*
Y-123146D02*
D03*
X112500Y-79646D02*
D03*
Y-85354D02*
D03*
X76000Y-53854D02*
D03*
Y-48146D02*
D03*
X81846Y-53854D02*
D03*
Y-48146D02*
D03*
X88500Y-62854D02*
D03*
Y-57146D02*
D03*
X88500Y-43791D02*
D03*
Y-49500D02*
D03*
X95000Y-43791D02*
D03*
Y-49500D02*
D03*
X95000Y-62854D02*
D03*
Y-57145D02*
D03*
X76000Y-40854D02*
D03*
Y-35145D02*
D03*
X81846Y-40854D02*
D03*
Y-35146D02*
D03*
X112500Y-66500D02*
D03*
Y-72209D02*
D03*
X106500Y-66500D02*
D03*
Y-72209D02*
D03*
X100500D02*
D03*
Y-66500D02*
D03*
X76000Y-72570D02*
D03*
Y-66861D02*
D03*
X82335Y-72570D02*
D03*
Y-66861D02*
D03*
D20*
X98268Y-8661D02*
D03*
X108268D02*
D03*
D21*
X72161Y-122338D02*
D03*
Y-119779D02*
D03*
Y-117220D02*
D03*
Y-114661D02*
D03*
X54839Y-122338D02*
D03*
Y-119779D02*
D03*
Y-117220D02*
D03*
Y-114661D02*
D03*
D22*
X44984Y-88543D02*
D03*
Y-91102D02*
D03*
Y-93661D02*
D03*
Y-96220D02*
D03*
Y-98779D02*
D03*
Y-101338D02*
D03*
Y-103897D02*
D03*
Y-106456D02*
D03*
X68016Y-88543D02*
D03*
Y-91102D02*
D03*
Y-93661D02*
D03*
Y-96220D02*
D03*
Y-98779D02*
D03*
Y-101338D02*
D03*
Y-103897D02*
D03*
Y-106456D02*
D03*
D23*
X19729Y-93862D02*
D03*
Y-97602D02*
D03*
Y-101343D02*
D03*
X30044D02*
D03*
Y-97602D02*
D03*
Y-93862D02*
D03*
X18843Y-122260D02*
D03*
Y-126000D02*
D03*
Y-129740D02*
D03*
X29157D02*
D03*
Y-126000D02*
D03*
Y-122260D02*
D03*
D24*
X37500Y-121153D02*
D03*
Y-127846D02*
D03*
D25*
X18387Y-115602D02*
D03*
X11694D02*
D03*
X111193Y-22500D02*
D03*
X104500D02*
D03*
Y-31500D02*
D03*
X111193D02*
D03*
X104500Y-40500D02*
D03*
X111193D02*
D03*
D26*
X50917Y-150677D02*
D03*
Y-148118D02*
D03*
Y-145559D02*
D03*
Y-143000D02*
D03*
Y-140441D02*
D03*
Y-137882D02*
D03*
Y-135323D02*
D03*
X28083Y-150677D02*
D03*
Y-148118D02*
D03*
Y-145559D02*
D03*
Y-143000D02*
D03*
Y-140441D02*
D03*
Y-137882D02*
D03*
Y-135323D02*
D03*
D27*
X89339Y-85563D02*
D03*
Y-87531D02*
D03*
Y-89500D02*
D03*
Y-91469D02*
D03*
Y-93437D02*
D03*
X106661Y-85563D02*
D03*
Y-87531D02*
D03*
Y-89500D02*
D03*
Y-91469D02*
D03*
Y-93437D02*
D03*
D28*
X110740Y-48390D02*
D03*
X107000D02*
D03*
X103260D02*
D03*
Y-59610D02*
D03*
X107000D02*
D03*
X110740D02*
D03*
D29*
X96618Y-35000D02*
D03*
X88075D02*
D03*
D30*
X92681Y-26862D02*
D03*
X97012D02*
D03*
D31*
X94846Y-26272D02*
D03*
D32*
X91894Y-20563D02*
D03*
X93862D02*
D03*
X95831D02*
D03*
X97799D02*
D03*
D53*
X58504Y-77559D02*
D03*
X51024D02*
D03*
X78740Y-7874D02*
D03*
X88740D02*
D03*
X104488Y-102362D02*
D03*
X94488D02*
D03*
X78740Y-157480D02*
D03*
X68740D02*
D03*
X58740D02*
D03*
X48740D02*
D03*
X3937D02*
D03*
Y-147480D02*
D03*
Y-137480D02*
D03*
Y-127480D02*
D03*
D54*
X65905Y-11811D02*
D03*
X5906Y-21811D02*
D03*
Y-11811D02*
D03*
Y-61811D02*
D03*
Y-51811D02*
D03*
Y-41811D02*
D03*
Y-31811D02*
D03*
Y-71811D02*
D03*
X65905D02*
D03*
Y-31811D02*
D03*
Y-41811D02*
D03*
Y-51811D02*
D03*
Y-61811D02*
D03*
Y-21811D02*
D03*
D55*
X18406Y-40945D02*
D03*
Y-33059D02*
D03*
M02*
