M48
;Layer_Color=9474304
;FILE_FORMAT=2:5
INCH,TZ
;TYPE=PLATED
T1F00S00C0.01181
T2F00S00C0.01575
T3F00S00C0.03937
T4F00S00C0.05906
%
T01
X12000Y-160000
X16000Y-162900
X8900Y-155500
X9200Y-151200
X15800Y-141807
X21900Y-138400
X22377Y-135323
X23000Y-125800
X25646Y-119300
X23200Y-104000
X34000Y-103000
X37100Y-96500
X52100Y-102300
X55400Y-99100
X49700Y-119300
X50000Y-126400
X43000Y-128128
X55500Y-134700
X35000Y-144700
X38000Y-152111
X23600Y-145800
X49000Y-67500
X37741Y-40559
X31500Y-32000
X86500Y-53600
X103260Y-54200
X107700Y-53300
X113700Y-61400
X110354Y-75900
X105700Y-75600
X105200Y-83400
X98600Y-85400
X95500Y-85300
X94854Y-80946
X96300Y-91469
X99300Y-91600
X102100Y-92400
X113200
X110000Y-97000
X86700Y-96800
X74400Y-98300
X76000Y-108600
X67800Y-112500
X63800Y-112800
X62800Y-116700
X82700Y-119500
X86800Y-112300
X91700Y-115700
X96000Y-109000
X90100Y-126900
X92500Y-142500
X77000Y-143800
X77300Y-134200
X72200Y-133700
X60800Y-146300
X59000Y-150500
X62500Y-162423
X86000Y-155000
X82800Y-83700
X83800Y-76700
X80631Y-76500
X71400Y-80800
X72600Y-70000
X95900Y-66700
X99600Y-45800
X63400Y-93600
X57950Y-96220
X72200Y-26800
X90100Y-28900
X90178Y-21938
X100300Y-29000
X30500Y-26500
T02
X42000Y-50000
X89000Y-25500
X84500Y-19375
X56000Y-13500
T03
X3937Y-157480
Y-147480
Y-137480
Y-127480
X5906Y-71811
Y-61811
Y-51811
Y-41811
Y-31811
X51024Y-77559
X48740Y-157480
X58740
X68740
X78740
X94488Y-102362
X104488
X65905Y-71811
Y-61811
Y-51811
Y-41811
Y-31811
X58504Y-77559
X65905Y-21811
Y-11811
X78740Y-7874
X88740
X5906Y-11811
Y-21811
T04
X18406Y-40945
Y-33059
M30
