G04*
G04 #@! TF.GenerationSoftware,Altium Limited,Altium Designer,23.0.1 (38)*
G04*
G04 Layer_Color=32896*
%FSLAX25Y25*%
%MOIN*%
G70*
G04*
G04 #@! TF.SameCoordinates,C4E3482C-EC36-4988-95D7-60F58037128F*
G04*
G04*
G04 #@! TF.FilePolarity,Positive*
G04*
G01*
G75*
%ADD14C,0.01000*%
%ADD17C,0.00591*%
D14*
X100605Y-152619D02*
X97981D01*
X96669Y-151307D01*
X97981Y-149995D01*
X100605D01*
X96669Y-148683D02*
Y-147371D01*
Y-148027D01*
X100605D01*
X99949Y-148683D01*
X96669Y-145403D02*
X97325D01*
Y-144747D01*
X96669D01*
Y-145403D01*
X99949Y-142123D02*
X100605Y-141467D01*
Y-140156D01*
X99949Y-139500D01*
X97325D01*
X96669Y-140156D01*
Y-141467D01*
X97325Y-142123D01*
X99949D01*
X96669Y-134252D02*
X100605D01*
X99293Y-132940D01*
X100605Y-131628D01*
X96669D01*
Y-130316D02*
X99293D01*
X100605Y-129004D01*
X99293Y-127692D01*
X96669D01*
X98637D01*
Y-130316D01*
X100605Y-126381D02*
X99949D01*
X98637Y-125069D01*
X99949Y-123757D01*
X100605D01*
X98637Y-125069D02*
X96669D01*
Y-119821D02*
Y-122445D01*
X99293Y-119821D01*
X99949D01*
X100605Y-120477D01*
Y-121789D01*
X99949Y-122445D01*
X100605Y-115885D02*
Y-118509D01*
X98637D01*
X99293Y-117197D01*
Y-116541D01*
X98637Y-115885D01*
X97325D01*
X96669Y-116541D01*
Y-117853D01*
X97325Y-118509D01*
X112940Y-160490D02*
X106642D01*
X109791D01*
Y-156292D01*
X112940D01*
X106642D01*
X110840Y-153144D02*
Y-151044D01*
X109791Y-149995D01*
X106642D01*
Y-153144D01*
X107692Y-154193D01*
X108741Y-153144D01*
Y-149995D01*
X104543Y-147896D02*
X110840D01*
Y-144747D01*
X109791Y-143698D01*
X107692D01*
X106642Y-144747D01*
Y-147896D01*
X111890Y-140549D02*
X110840D01*
Y-141599D01*
Y-139500D01*
Y-140549D01*
X107692D01*
X106642Y-139500D01*
Y-136351D02*
Y-134252D01*
Y-135301D01*
X110840D01*
Y-136351D01*
X112940Y-131103D02*
X106642D01*
Y-127955D01*
X107692Y-126905D01*
X111890D01*
X112940Y-127955D01*
Y-131103D01*
X110840Y-124806D02*
X106642D01*
X108741D01*
X109791Y-123757D01*
X110840Y-122707D01*
Y-121658D01*
Y-118509D02*
X107692D01*
X106642Y-117459D01*
Y-114311D01*
X110840D01*
X106642Y-112212D02*
X110840D01*
Y-111162D01*
X109791Y-110113D01*
X106642D01*
X109791D01*
X110840Y-109063D01*
X109791Y-108014D01*
X106642D01*
D17*
X6561Y-161549D02*
X6233Y-161221D01*
X5577D01*
X5249Y-161549D01*
Y-161877D01*
X5577Y-162205D01*
X5905D01*
X5577D01*
X5249Y-162533D01*
Y-162861D01*
X5577Y-163189D01*
X6233D01*
X6561Y-162861D01*
X4593Y-161221D02*
Y-162533D01*
X3937Y-163189D01*
X3281Y-162533D01*
Y-161221D01*
X2625Y-161549D02*
X2297Y-161221D01*
X1641D01*
X1313Y-161549D01*
Y-161877D01*
X1641Y-162205D01*
X1969D01*
X1641D01*
X1313Y-162533D01*
Y-162861D01*
X1641Y-163189D01*
X2297D01*
X2625Y-162861D01*
X5249Y-151549D02*
X5577Y-151221D01*
X6233D01*
X6561Y-151549D01*
Y-152861D01*
X6233Y-153189D01*
X5577D01*
X5249Y-152861D01*
Y-152205D01*
X5905D01*
X4593Y-153189D02*
Y-151221D01*
X3281Y-153189D01*
Y-151221D01*
X2625D02*
Y-153189D01*
X1641D01*
X1313Y-152861D01*
Y-151549D01*
X1641Y-151221D01*
X2625D01*
X5249Y-141549D02*
X5577Y-141221D01*
X6233D01*
X6561Y-141549D01*
Y-141877D01*
X6233Y-142205D01*
X5577D01*
X5249Y-142533D01*
Y-142861D01*
X5577Y-143189D01*
X6233D01*
X6561Y-142861D01*
X3281Y-141549D02*
X3609Y-141221D01*
X4265D01*
X4593Y-141549D01*
Y-142861D01*
X4265Y-143189D01*
X3609D01*
X3281Y-142861D01*
X2625Y-141221D02*
Y-143189D01*
X1313D01*
X5249Y-131549D02*
X5577Y-131221D01*
X6233D01*
X6561Y-131549D01*
Y-131877D01*
X6233Y-132205D01*
X5577D01*
X5249Y-132533D01*
Y-132861D01*
X5577Y-133189D01*
X6233D01*
X6561Y-132861D01*
X4593Y-131221D02*
Y-133189D01*
X3609D01*
X3281Y-132861D01*
Y-131549D01*
X3609Y-131221D01*
X4593D01*
X2625Y-133189D02*
Y-131877D01*
X1969Y-131221D01*
X1313Y-131877D01*
Y-133189D01*
Y-132205D01*
X2625D01*
M02*
