G04*
G04 #@! TF.GenerationSoftware,Altium Limited,Altium Designer,23.0.1 (38)*
G04*
G04 Layer_Physical_Order=2*
G04 Layer_Color=16711680*
%FSLAX25Y25*%
%MOIN*%
G70*
G04*
G04 #@! TF.SameCoordinates,C4E3482C-EC36-4988-95D7-60F58037128F*
G04*
G04*
G04 #@! TF.FilePolarity,Positive*
G04*
G01*
G75*
%ADD16C,0.00500*%
%ADD53C,0.05118*%
%ADD54C,0.05906*%
G04:AMPARAMS|DCode=55|XSize=78.74mil|YSize=62.99mil|CornerRadius=15.75mil|HoleSize=0mil|Usage=FLASHONLY|Rotation=0.000|XOffset=0mil|YOffset=0mil|HoleType=Round|Shape=RoundedRectangle|*
%AMROUNDEDRECTD55*
21,1,0.07874,0.03150,0,0,0.0*
21,1,0.04724,0.06299,0,0,0.0*
1,1,0.03150,0.02362,-0.01575*
1,1,0.03150,-0.02362,-0.01575*
1,1,0.03150,-0.02362,0.01575*
1,1,0.03150,0.02362,0.01575*
%
%ADD55ROUNDEDRECTD55*%
%ADD56C,0.02362*%
%ADD57C,0.01968*%
D16*
X22982Y-37482D02*
X73414D01*
X22545Y-37045D02*
X22982Y-37482D01*
X28000Y-34500D02*
Y-29000D01*
Y-34500D02*
X29400Y-35900D01*
X28000Y-29000D02*
X30500Y-26500D01*
X60780Y-96220D02*
X73321Y-83679D01*
X29400Y-35900D02*
X51817D01*
X31500Y-32000D02*
Y-31900D01*
X39400Y-24000D01*
X51800D01*
X20916Y-30582D02*
Y-30549D01*
X46065Y-5400D01*
X18406Y-33059D02*
X18439D01*
X46065Y-5400D02*
X65900D01*
X18439Y-33059D02*
X20916Y-30582D01*
X21401Y-37000D02*
X21446Y-37045D01*
X22545D01*
X5906Y-31811D02*
X11095Y-37000D01*
X21401D01*
X5906Y-41811D02*
X11095Y-47000D01*
X45700D02*
X65300Y-66600D01*
X11095Y-47000D02*
X45700D01*
X85644Y-156156D02*
Y-155356D01*
X86000Y-155000D01*
X79010Y-162790D02*
X85644Y-156156D01*
X65000Y-158790D02*
X67000Y-160790D01*
X59000Y-150500D02*
X59115Y-150616D01*
X65000Y-158790D02*
Y-155000D01*
X59115Y-150616D02*
X60615D01*
X65000Y-155000D01*
X65500Y-148500D02*
X68740Y-151740D01*
Y-155209D02*
Y-151740D01*
X57721Y-148500D02*
X65500D01*
X68740Y-157480D02*
Y-155209D01*
X48740Y-157480D02*
X57721Y-148500D01*
X65920Y-162790D02*
X79010D01*
X62500Y-162423D02*
X65553D01*
X16000Y-162900D02*
X17454Y-164354D01*
X80653D01*
X65553Y-162423D02*
X65920Y-162790D01*
X80653Y-164354D02*
X88000Y-157007D01*
X89903Y-107903D02*
X93631Y-111631D01*
X90903Y-106903D02*
X94631Y-110631D01*
X90903Y-106903D02*
Y-84897D01*
X93631Y-130318D02*
Y-111631D01*
X94631Y-136869D02*
Y-110631D01*
X96000Y-109000D02*
X103000D01*
X89903Y-107903D02*
Y-79728D01*
X94369Y-102243D02*
Y-89631D01*
Y-102243D02*
X94488Y-102362D01*
X96300Y-96300D02*
X102362Y-102362D01*
X96300Y-96300D02*
Y-91469D01*
X88384Y-116031D02*
X89800Y-114614D01*
X88384Y-120309D02*
Y-116031D01*
X89800Y-114614D02*
Y-109600D01*
X88900Y-108700D02*
Y-77931D01*
X86700Y-109400D02*
X88800Y-111500D01*
X88900Y-108700D02*
X89800Y-109600D01*
X78424Y-130269D02*
X88384Y-120309D01*
X86700Y-109400D02*
Y-96800D01*
X83502Y-115598D02*
X86800Y-112300D01*
X88800Y-114200D02*
Y-111500D01*
X68740Y-155209D02*
X93631Y-130318D01*
X89903Y-79728D02*
X91100Y-78531D01*
X88900Y-77931D02*
X89300Y-77531D01*
X103000Y-109000D02*
X110000Y-102000D01*
Y-97000D01*
X88000Y-157007D02*
Y-147000D01*
X92500Y-142500D01*
X10600Y-153800D02*
X36604D01*
X38000Y-152404D02*
Y-152111D01*
X36604Y-153800D02*
X38000Y-152404D01*
X23600Y-145800D02*
X24460Y-146660D01*
X21600Y-147259D02*
X22520Y-148180D01*
X46335Y-150180D02*
X56414Y-140100D01*
X21780Y-149180D02*
X44908D01*
X3937Y-137480D02*
X16636Y-150180D01*
X41355Y-148180D02*
X51435Y-138100D01*
X24460Y-146660D02*
X37207D01*
X16636Y-150180D02*
X46335D01*
X20600Y-148000D02*
X21780Y-149180D01*
X22520Y-148180D02*
X41355D01*
X44908Y-149180D02*
X54988Y-139100D01*
X37207Y-146660D02*
X47236Y-136631D01*
X21600Y-147259D02*
Y-142636D01*
X20600Y-148000D02*
Y-139700D01*
X35000Y-144700D02*
Y-137800D01*
X8900Y-155500D02*
X10600Y-153800D01*
X37659Y-40559D02*
X37700Y-40600D01*
X70710Y-160790D02*
X94631Y-136869D01*
X67000Y-160790D02*
X70710D01*
X102100Y-92400D02*
X113200D01*
X115700Y-89900D01*
X88000Y-16000D02*
X90178Y-18178D01*
Y-21938D02*
Y-18178D01*
X51727Y-59727D02*
X53822D01*
X42000Y-50000D02*
X51727Y-59727D01*
X53822D02*
X65906Y-71811D01*
X86500Y-25500D02*
X89000D01*
X56000Y-13500D02*
X58500Y-16000D01*
X88000D01*
X84500Y-23500D02*
X86500Y-25500D01*
X84500Y-23500D02*
Y-19375D01*
X37659Y-40559D02*
X37741D01*
X51800Y-24000D02*
X57700Y-18100D01*
X46500Y-70000D02*
X49000Y-67500D01*
X46500Y-93500D02*
Y-70000D01*
Y-93500D02*
X54500Y-101500D01*
Y-102940D02*
Y-101500D01*
X55400Y-99604D02*
Y-99100D01*
Y-99604D02*
X56000Y-100204D01*
X50000Y-126400D02*
X56000Y-120400D01*
Y-100204D01*
X51440Y-106000D02*
X54500Y-102940D01*
X49000Y-106000D02*
X51440D01*
X46000Y-103000D02*
X49000Y-106000D01*
X34000Y-103000D02*
X46000D01*
X73321Y-83679D02*
X73467Y-83533D01*
X72912Y-70312D02*
X73467Y-83304D01*
X57950Y-96220D02*
X60780D01*
X73467Y-83533D02*
Y-83304D01*
X67200Y-80800D02*
X71400D01*
X37741Y-40559D02*
X43159D01*
X18406D02*
X37659D01*
X65800Y-55900D02*
X84200D01*
X27377Y-130177D02*
X35000Y-137800D01*
X23000Y-125800D02*
X27377Y-130177D01*
X81669Y-74569D02*
X83800Y-76700D01*
X79500Y-74569D02*
X81669D01*
X78631Y-75438D02*
X79500Y-74569D01*
X78631Y-80500D02*
Y-75438D01*
Y-80500D02*
X79631Y-81500D01*
Y-89803D02*
Y-81500D01*
X59818Y-109617D02*
X79631Y-89803D01*
X59818Y-133665D02*
Y-109617D01*
X56851Y-136631D02*
X59818Y-133665D01*
X47236Y-136631D02*
X56851D01*
X34474Y-128128D02*
X43000D01*
X25646Y-119300D02*
X34474Y-128128D01*
X25646Y-119300D02*
X49700D01*
X84200Y-55900D02*
X86500Y-53600D01*
X43159Y-40559D02*
X58500Y-55900D01*
X82800Y-83700D02*
X85731Y-80769D01*
Y-75831D01*
X65800Y-55900D02*
X85731Y-75831D01*
X58500Y-55900D02*
X65800D01*
X74500Y-146300D02*
X77000Y-143800D01*
X60800Y-146300D02*
X74500D01*
X57700Y-18100D02*
X75794D01*
X105428Y-47734D01*
Y-54000D02*
Y-47734D01*
Y-54000D02*
X112828Y-61400D01*
X113700D01*
X80600Y-26800D02*
X99600Y-45800D01*
X72200Y-26800D02*
X80600D01*
X51817Y-35900D02*
X65906Y-21811D01*
X72600Y-70000D02*
X72912Y-70312D01*
X79800Y-116600D02*
X82700Y-119500D01*
X78480Y-116600D02*
X79800D01*
X63475Y-131604D02*
X78480Y-116600D01*
X63475Y-134410D02*
Y-131604D01*
X58785Y-139100D02*
X63475Y-134410D01*
X54988Y-139100D02*
X58785D01*
X20600Y-139700D02*
X21900Y-138400D01*
X12000Y-160000D02*
X38600D01*
X45400Y-153200D01*
X46500D01*
X57600Y-142100D01*
X67800D01*
X74200Y-135700D01*
Y-134200D01*
X76131Y-132269D01*
X84731D01*
X90100Y-126900D01*
X91100Y-78531D02*
X107723D01*
X110354Y-75900D01*
X58740Y-157480D02*
X62025D01*
X66334Y-161790D01*
X74431D01*
X78740Y-157480D01*
X56414Y-140100D02*
X59373D01*
X77781Y-121692D01*
X84010D01*
X84703Y-121000D01*
Y-118297D01*
X88800Y-114200D01*
X95900Y-66700D02*
X103260Y-59340D01*
Y-54200D01*
X3937Y-157480D02*
X36786D01*
X42330Y-151937D01*
X46344D01*
X57181Y-141100D01*
X60379D01*
X71210Y-130269D01*
X78424D01*
X89300Y-77531D02*
X107169D01*
X107700Y-77000D01*
Y-74300D01*
X107000Y-73600D02*
X107700Y-74300D01*
X95500Y-73600D02*
X107000D01*
X89500Y-67600D02*
X95500Y-73600D01*
X89500Y-67600D02*
Y-42011D01*
X79300Y-31811D02*
X89500Y-42011D01*
X65906Y-31811D02*
X79300D01*
X72200Y-133700D02*
X73131D01*
X75562Y-131269D01*
X82431D01*
X91700Y-122000D01*
Y-115700D01*
X22377Y-135323D02*
X23904Y-136850D01*
Y-140331D02*
Y-136850D01*
X21600Y-142636D02*
X23904Y-140331D01*
X51435Y-138100D02*
X57083D01*
X60818Y-134365D01*
Y-110051D01*
X72569Y-98300D01*
X74400D01*
X67718Y-143782D02*
X77300Y-134200D01*
X58018Y-143782D02*
X67718D01*
X47299Y-154500D02*
X58018Y-143782D01*
X46400Y-154500D02*
X47299D01*
X45400Y-155500D02*
X46400Y-154500D01*
X45400Y-160000D02*
Y-155500D01*
Y-160000D02*
X46500Y-161100D01*
X55121D01*
X58740Y-157480D01*
X65300Y-66600D02*
X75000D01*
X76200Y-67800D01*
Y-80100D02*
Y-67800D01*
Y-80100D02*
X78631Y-82531D01*
Y-85069D02*
Y-82531D01*
X58818Y-104882D02*
X78631Y-85069D01*
X58818Y-131382D02*
Y-104882D01*
X55500Y-134700D02*
X58818Y-131382D01*
X3937Y-147480D02*
X5480D01*
X9200Y-151200D01*
X90903Y-84897D02*
X94854Y-80946D01*
X103260Y-54200D02*
X112286Y-63226D01*
Y-80299D02*
Y-63226D01*
X107162Y-85423D02*
X112286Y-80299D01*
X105477Y-85423D02*
X107162D01*
X99300Y-91600D02*
X105477Y-85423D01*
X94369Y-89631D02*
X98600Y-85400D01*
X95500Y-85300D02*
X97400Y-83400D01*
X105200D01*
X90200Y-29000D02*
X100300D01*
X90100Y-28900D02*
X90200Y-29000D01*
X67800Y-112500D02*
X80631Y-99669D01*
Y-76500D01*
X61818Y-115718D02*
X62800Y-116700D01*
X61818Y-115718D02*
Y-110882D01*
X61900Y-110800D01*
X64550D01*
X65750Y-112000D01*
Y-114336D02*
Y-112000D01*
Y-114336D02*
X65914Y-114500D01*
X79506D01*
X84769Y-109238D01*
Y-95331D01*
X87800Y-92300D01*
Y-77231D01*
X89431Y-75600D01*
X105700D01*
X63800Y-113800D02*
Y-112800D01*
Y-113800D02*
X65598Y-115598D01*
X83502D01*
X81914Y-14700D02*
X88740Y-7874D01*
X75200Y-14700D02*
X81914D01*
X65900Y-5400D02*
X75200Y-14700D01*
X73414Y-37482D02*
X88431Y-52500D01*
Y-55531D02*
Y-52500D01*
X86731Y-57231D02*
X88431Y-55531D01*
X86731Y-91238D02*
Y-57231D01*
X83769Y-94200D02*
X86731Y-91238D01*
X83769Y-100831D02*
Y-94200D01*
X76000Y-108600D02*
X83769Y-100831D01*
X115700Y-89900D02*
Y-56000D01*
X113000Y-53300D02*
X115700Y-56000D01*
X107700Y-53300D02*
X113000D01*
X5400Y-55600D02*
X52100Y-102300D01*
X3800Y-55600D02*
X5400D01*
X2200Y-54000D02*
X3800Y-55600D01*
X2200Y-54000D02*
Y-25517D01*
X5906Y-21811D01*
X15800Y-111400D02*
X23200Y-104000D01*
X15800Y-141807D02*
Y-111400D01*
X38211Y-51811D02*
X67200Y-80800D01*
X5906Y-51811D02*
X38211D01*
X23200Y-104000D02*
X29600D01*
X37100Y-96500D01*
X3937Y-137480D02*
X7300Y-134117D01*
Y-121200D01*
X2200Y-116100D02*
X7300Y-121200D01*
X2200Y-116100D02*
Y-65517D01*
X5906Y-61811D01*
D53*
X58504Y-77559D02*
D03*
X51024D02*
D03*
X78740Y-7874D02*
D03*
X88740D02*
D03*
X104488Y-102362D02*
D03*
X94488D02*
D03*
X78740Y-157480D02*
D03*
X68740D02*
D03*
X58740D02*
D03*
X48740D02*
D03*
X3937D02*
D03*
Y-147480D02*
D03*
Y-137480D02*
D03*
Y-127480D02*
D03*
D54*
X65905Y-11811D02*
D03*
X5906Y-21811D02*
D03*
Y-11811D02*
D03*
Y-61811D02*
D03*
Y-51811D02*
D03*
Y-41811D02*
D03*
Y-31811D02*
D03*
Y-71811D02*
D03*
X65905D02*
D03*
Y-31811D02*
D03*
Y-41811D02*
D03*
Y-51811D02*
D03*
Y-61811D02*
D03*
Y-21811D02*
D03*
D55*
X18406Y-40945D02*
D03*
Y-33059D02*
D03*
D56*
X30500Y-26500D02*
D03*
X31500Y-32000D02*
D03*
X86000Y-155000D02*
D03*
X59000Y-150500D02*
D03*
X62500Y-162423D02*
D03*
X96000Y-109000D02*
D03*
X86800Y-112300D02*
D03*
X92500Y-142500D02*
D03*
X38000Y-152111D02*
D03*
X35000Y-144700D02*
D03*
X8900Y-155500D02*
D03*
X110000Y-97000D02*
D03*
X113200Y-92400D02*
D03*
X71400Y-80800D02*
D03*
X83800Y-76700D02*
D03*
X23600Y-145800D02*
D03*
X43000Y-128128D02*
D03*
X25646Y-119300D02*
D03*
X49700D02*
D03*
X86500Y-53600D02*
D03*
X82800Y-83700D02*
D03*
X77000Y-143800D02*
D03*
X60800Y-146300D02*
D03*
X113700Y-61400D02*
D03*
X99600Y-45800D02*
D03*
X72200Y-26800D02*
D03*
X72600Y-70000D02*
D03*
X57950Y-96220D02*
D03*
X96300Y-91469D02*
D03*
X23000Y-125800D02*
D03*
X16000Y-162900D02*
D03*
X82700Y-119500D02*
D03*
X21900Y-138400D02*
D03*
X12000Y-160000D02*
D03*
X90100Y-126900D02*
D03*
X110354Y-75900D02*
D03*
X86700Y-96800D02*
D03*
X95900Y-66700D02*
D03*
X103260Y-54200D02*
D03*
X72200Y-133700D02*
D03*
X91700Y-115700D02*
D03*
X22377Y-135323D02*
D03*
X74400Y-98300D02*
D03*
X77300Y-134200D02*
D03*
X55500Y-134700D02*
D03*
X9200Y-151200D02*
D03*
X94854Y-80946D02*
D03*
X99300Y-91600D02*
D03*
X98600Y-85400D02*
D03*
X95500Y-85300D02*
D03*
X105200Y-83400D02*
D03*
X100300Y-29000D02*
D03*
X90100Y-28900D02*
D03*
X67800Y-112500D02*
D03*
X80631Y-76500D02*
D03*
X62800Y-116700D02*
D03*
X105700Y-75600D02*
D03*
X63800Y-112800D02*
D03*
X76000Y-108600D02*
D03*
X102100Y-92400D02*
D03*
X107700Y-53300D02*
D03*
X55400Y-99100D02*
D03*
X50000Y-126400D02*
D03*
X52100Y-102300D02*
D03*
X63400Y-93600D02*
D03*
X37741Y-40559D02*
D03*
X15800Y-141807D02*
D03*
X23200Y-104000D02*
D03*
X37100Y-96500D02*
D03*
D57*
X42000Y-50000D02*
D03*
X90178Y-21938D02*
D03*
X89000Y-25500D02*
D03*
X56000Y-13500D02*
D03*
X84500Y-19375D02*
D03*
X49000Y-67500D02*
D03*
X34000Y-103000D02*
D03*
M02*
